<svg id="visual" viewBox="0 0 900 600" width="900" height="600" xmlns="http://www.w3.org/2000/svg" xmlns:xlink="http://www.w3.org/1999/xlink" version="1.1"><rect width="900" height="600" fill="#5e8480"></rect><g><g transform="translate(224 527)"><path d="M49 -16.6C55.3 3.4 46.5 27.7 28.8 40.8C11.2 53.9 -15.4 55.8 -31.6 43.9C-47.8 32 -53.6 6.4 -46.6 -14.7C-39.7 -35.7 -19.8 -52.1 0.8 -52.4C21.4 -52.6 42.7 -36.7 49 -16.6Z" fill="#5cdaa8"></path></g><g transform="translate(612 570)"><path d="M41.4 -13C47.2 4.5 41.1 26.3 27.1 36.2C13.1 46.2 -8.8 44.2 -24.2 33.1C-39.6 22 -48.6 1.6 -43.5 -14.9C-38.3 -31.3 -19.2 -44 -0.7 -43.8C17.8 -43.6 35.6 -30.4 41.4 -13Z" fill="#5cdaa8"></path></g><g transform="translate(885 575)"><path d="M45.1 -15.3C51.2 4 43.8 27 28 38.5C12.2 49.9 -11.9 49.7 -27.5 38.3C-43.1 26.9 -50.2 4.1 -44.2 -15.1C-38.2 -34.3 -19.1 -49.9 0.2 -50C19.5 -50.1 39.1 -34.5 45.1 -15.3Z" fill="#5cdaa8"></path></g><g transform="translate(357 194)"><path d="M24.6 -7.7C27.9 2.2 23.9 14.8 15.3 21.1C6.7 27.4 -6.6 27.3 -15.1 21.1C-23.6 14.8 -27.3 2.4 -24 -7.5C-20.7 -17.4 -10.4 -24.7 0.1 -24.7C10.6 -24.8 21.3 -17.6 24.6 -7.7Z" fill="#5cdaa8"></path></g><g transform="translate(556 334)"><path d="M27.7 -8.8C31.2 1.5 25.8 14.9 15.5 22.7C5.2 30.5 -10 32.7 -19.8 25.9C-29.7 19.1 -34 3.3 -29.8 -8.1C-25.6 -19.5 -12.8 -26.5 -0.3 -26.4C12.2 -26.3 24.3 -19.1 27.7 -8.8Z" fill="#5cdaa8"></path></g><g transform="translate(94 318)"><path d="M33.5 -11.3C38.4 4 33.7 21.9 21.9 30.6C10.1 39.2 -8.7 38.6 -22.4 29.1C-36.1 19.5 -44.7 1.1 -40.1 -13.8C-35.5 -28.8 -17.7 -40.3 -1.7 -39.8C14.3 -39.2 28.7 -26.6 33.5 -11.3Z" fill="#5cdaa8"></path></g><g transform="translate(174 171)"><path d="M33.5 -10.8C38 2.9 32.4 19.9 21.2 27.7C10.1 35.4 -6.7 33.9 -17.3 25.7C-27.9 17.6 -32.4 2.8 -28.4 -10.1C-24.5 -23 -12.3 -34 1.1 -34.4C14.5 -34.8 29 -24.5 33.5 -10.8Z" fill="#5cdaa8"></path></g><g transform="translate(63 46)"><path d="M26.2 -9.4C30 3.1 26.4 17.2 16.4 25C6.5 32.8 -9.8 34.4 -20.4 27C-30.9 19.6 -35.6 3.2 -31.3 -10.1C-26.9 -23.4 -13.5 -33.7 -1.1 -33.4C11.2 -33 22.4 -22 26.2 -9.4Z" fill="#5cdaa8"></path></g><g transform="translate(769 137)"><path d="M47 -13.5C53.4 4.3 45.8 28.4 29.8 39.6C13.9 50.9 -10.3 49.2 -26.9 37.1C-43.4 25.1 -52.3 2.6 -46.6 -14.4C-40.8 -31.4 -20.4 -42.9 0 -42.9C20.3 -42.9 40.6 -31.3 47 -13.5Z" fill="#5cdaa8"></path></g><g transform="translate(68 476)"><path d="M42.9 -14.1C48.9 4.5 42.4 26.9 27.9 37.2C13.4 47.4 -9.1 45.5 -25.2 33.9C-41.3 22.4 -51.1 1.3 -45.8 -16.3C-40.6 -33.9 -20.3 -48.1 -0.9 -47.8C18.5 -47.5 36.9 -32.8 42.9 -14.1Z" fill="#5cdaa8"></path></g><g transform="translate(586 187)"><path d="M27 -8.1C31.2 3.9 27.9 18.9 18.5 25.8C9.1 32.7 -6.4 31.4 -17.8 23.4C-29.1 15.4 -36.3 0.7 -32.6 -10.6C-28.9 -21.9 -14.5 -29.8 -1.5 -29.3C11.5 -28.8 22.9 -20 27 -8.1Z" fill="#5cdaa8"></path></g><g transform="translate(740 401)"><path d="M34.4 -12C39.7 5.1 35.7 24.4 23.4 33.8C11 43.1 -9.7 42.5 -22 32.9C-34.4 23.3 -38.4 4.8 -33.3 -12C-28.3 -28.8 -14.1 -43.8 0.2 -43.9C14.6 -44 29.1 -29.1 34.4 -12Z" fill="#5cdaa8"></path></g><g transform="translate(342 368)"><path d="M28.9 -9.2C32.2 0.8 26 14 15.8 21.4C5.5 28.8 -8.8 30.3 -18.2 23.8C-27.6 17.3 -32 2.7 -28.2 -8C-24.3 -18.8 -12.2 -25.7 0.3 -25.8C12.8 -25.9 25.6 -19.2 28.9 -9.2Z" fill="#5cdaa8"></path></g><g transform="translate(503 41)"><path d="M42.1 -13.5C47.8 4 41.1 25.6 25 38.3C8.9 50.9 -16.7 54.5 -33.1 43.1C-49.6 31.7 -57 5.4 -50 -13.9C-42.9 -33.1 -21.5 -45.3 -1.7 -44.8C18.2 -44.2 36.3 -31 42.1 -13.5Z" fill="#5cdaa8"></path></g><g transform="translate(285 2)"><path d="M39.7 -11C46.2 7.1 42.6 30.4 29 40.4C15.4 50.4 -8.3 47.2 -24.3 35.1C-40.2 23.1 -48.6 2.3 -43.3 -14.2C-38 -30.6 -19 -42.8 -1.2 -42.4C16.6 -42 33.2 -29.1 39.7 -11Z" fill="#5cdaa8"></path></g><g transform="translate(393 515)"><path d="M33.1 -10.6C37.8 3.7 33 21.3 21.1 30.3C9.2 39.3 -10 39.6 -22.2 30.7C-34.5 21.8 -40 3.5 -35.1 -11C-30.3 -25.5 -15.1 -36.2 -0.5 -36.1C14.2 -35.9 28.4 -24.9 33.1 -10.6Z" fill="#5cdaa8"></path></g><g transform="translate(887 294)"><path d="M25.9 -8.4C29.4 2.2 25 15.4 16.1 21.8C7.1 28.2 -6.5 28 -16.5 21.1C-26.5 14.2 -32.8 0.8 -29.5 -9.7C-26.1 -20.1 -13.1 -27.5 -0.9 -27.3C11.2 -27 22.4 -18.9 25.9 -8.4Z" fill="#5cdaa8"></path></g><g transform="translate(887 14)"><path d="M45.7 -16.2C51.5 3 43.1 25.4 26.8 37.4C10.5 49.3 -13.8 50.8 -29.8 39.6C-45.8 28.3 -53.5 4.2 -47.2 -15.7C-40.8 -35.6 -20.4 -51.3 -0.2 -51.2C20 -51.2 39.9 -35.3 45.7 -16.2Z" fill="#5cdaa8"></path></g><g transform="translate(647 4)"><path d="M39.9 -15.4C44.6 1.6 36.5 20.4 21.8 31.4C7 42.5 -14.4 45.9 -27.6 36.6C-40.9 27.3 -45.9 5.4 -40 -13.3C-34 -32 -17 -47.4 0.3 -47.4C17.6 -47.5 35.2 -32.3 39.9 -15.4Z" fill="#5cdaa8"></path></g></g></svg>